<svg width="32" height="32" viewBox="0 0 32 32" fill="none" xmlns="http://www.w3.org/2000/svg">
<g clip-path="url(#clip0_42_79)">
<path d="M8.11436 31.8868C6.21131 31.8003 5.17752 31.4836 4.48991 31.2154C3.5788 30.8606 2.92924 30.4384 2.24543 29.7555C1.56163 29.0727 1.13841 28.4231 0.785568 27.512C0.517371 26.8244 0.200672 25.7906 0.114126 23.8875C0.019021 21.8304 0 21.2132 0 16.0014C0 10.7897 0.0209231 10.1734 0.113175 8.11436C0.199721 6.21131 0.518323 5.17942 0.784617 4.48991C1.13936 3.5788 1.56258 2.92924 2.24448 2.24448C2.92733 1.56163 3.5769 1.13746 4.48896 0.784617C5.17657 0.51642 6.21036 0.199721 8.11341 0.113175C10.1715 0.019021 10.7897 0 15.9995 0C21.2113 0 21.8276 0.0209231 23.8866 0.113175C25.7896 0.199721 26.8215 0.518323 27.511 0.784617C28.4221 1.13746 29.0717 1.56163 29.7555 2.24448C30.4393 2.92733 30.8606 3.57785 31.2154 4.48896C31.4836 5.17657 31.8003 6.21036 31.8868 8.11341C31.981 10.1724 32 10.7887 32 16.0005C32 21.2103 31.981 21.8285 31.8868 23.8875C31.8003 25.7906 31.4817 26.8244 31.2154 27.512C30.8606 28.4231 30.4384 29.0727 29.7555 29.7555C29.0727 30.4384 28.4221 30.8606 27.511 31.2154C26.8234 31.4836 25.7896 31.8003 23.8866 31.8868C21.8295 31.981 21.2113 32 15.9995 32C10.7897 32 10.1715 31.9819 8.11436 31.8868Z" fill="url(#paint0_radial_42_79)"/>
<path d="M8.11436 31.8868C6.21131 31.8003 5.17752 31.4836 4.48991 31.2154C3.5788 30.8606 2.92924 30.4384 2.24543 29.7555C1.56163 29.0727 1.13841 28.4231 0.785568 27.512C0.517371 26.8244 0.200672 25.7906 0.114126 23.8875C0.019021 21.8304 0 21.2132 0 16.0014C0 10.7897 0.0209231 10.1734 0.113175 8.11436C0.199721 6.21131 0.518323 5.17942 0.784617 4.48991C1.13936 3.5788 1.56258 2.92924 2.24448 2.24448C2.92733 1.56163 3.5769 1.13746 4.48896 0.784617C5.17657 0.51642 6.21036 0.199721 8.11341 0.113175C10.1715 0.019021 10.7897 0 15.9995 0C21.2113 0 21.8276 0.0209231 23.8866 0.113175C25.7896 0.199721 26.8215 0.518323 27.511 0.784617C28.4221 1.13746 29.0717 1.56163 29.7555 2.24448C30.4393 2.92733 30.8606 3.57785 31.2154 4.48896C31.4836 5.17657 31.8003 6.21036 31.8868 8.11341C31.981 10.1724 32 10.7887 32 16.0005C32 21.2103 31.981 21.8285 31.8868 23.8875C31.8003 25.7906 31.4817 26.8244 31.2154 27.512C30.8606 28.4231 30.4384 29.0727 29.7555 29.7555C29.0727 30.4384 28.4221 30.8606 27.511 31.2154C26.8234 31.4836 25.7896 31.8003 23.8866 31.8868C21.8295 31.981 21.2113 32 15.9995 32C10.7897 32 10.1715 31.9819 8.11436 31.8868Z" fill="url(#paint1_radial_42_79)"/>
<path d="M12.0712 16.0682C12.0712 13.8797 13.8448 12.1052 16.0333 12.1052C18.2217 12.1052 19.9963 13.8797 19.9963 16.0682C19.9963 18.2566 18.2217 20.0312 16.0333 20.0312C13.8448 20.0312 12.0712 18.2566 12.0712 16.0682ZM9.92886 16.0682C9.92886 19.4397 12.6618 22.1726 16.0333 22.1726C19.4047 22.1726 22.1377 19.4397 22.1377 16.0682C22.1377 12.6967 19.4047 9.96377 16.0333 9.96377C12.6618 9.96377 9.92896 12.6965 9.92896 16.0682M20.9529 9.72173C20.9528 10.0039 21.0363 10.2797 21.193 10.5144C21.3496 10.7491 21.5724 10.932 21.833 11.0401C22.0936 11.1481 22.3804 11.1765 22.6572 11.1216C22.9339 11.0666 23.1882 10.9309 23.3878 10.7314C23.5874 10.532 23.7233 10.2779 23.7785 10.0012C23.8337 9.72447 23.8055 9.43762 23.6976 9.1769C23.5898 8.91619 23.407 8.69331 23.1725 8.53646C22.9379 8.37962 22.6622 8.29584 22.38 8.29573H22.3794C22.0012 8.2959 21.6386 8.44618 21.3711 8.71355C21.1036 8.98093 20.9532 9.34353 20.9529 9.72173ZM11.2305 25.7449C10.0714 25.6922 9.44145 25.4991 9.02279 25.336C8.46776 25.1199 8.07174 24.8626 7.65537 24.4468C7.239 24.031 6.98127 23.6353 6.76614 23.0803C6.60294 22.6618 6.40988 22.0317 6.35719 20.8726C6.29956 19.6195 6.28805 19.2431 6.28805 16.0684C6.28805 12.8937 6.30051 12.5183 6.35719 11.2641C6.40997 10.1051 6.60446 9.47617 6.76614 9.05647C6.98222 8.50144 7.23957 8.10542 7.65537 7.68905C8.07117 7.27268 8.46681 7.01495 9.02279 6.79982C9.44126 6.63662 10.0714 6.44355 11.2305 6.39087C12.4836 6.33323 12.86 6.32172 16.0333 6.32172C19.2065 6.32172 19.5834 6.33399 20.8375 6.39106C21.9966 6.44384 22.6255 6.63833 23.0452 6.80001C23.6002 7.01514 23.9962 7.27344 24.4126 7.68924C24.829 8.10504 25.0858 8.50163 25.3018 9.05666C25.465 9.47512 25.6581 10.1053 25.7108 11.2643C25.7684 12.5185 25.7799 12.8939 25.7799 16.0686C25.7799 19.2433 25.7684 19.6186 25.7108 20.8728C25.658 22.0318 25.464 22.6618 25.3018 23.0805C25.0858 23.6355 24.8284 24.0315 24.4126 24.4469C23.9968 24.8624 23.6002 25.1201 23.0452 25.3362C22.6267 25.4994 21.9966 25.6924 20.8375 25.7451C19.5844 25.8028 19.208 25.8143 16.0333 25.8143C12.8586 25.8143 12.4832 25.8028 11.2305 25.7451M11.132 4.25205C9.86647 4.30968 9.00168 4.51035 8.24645 4.80423C7.46478 5.10771 6.80219 5.51485 6.14054 6.17545C5.47889 6.83605 5.0728 7.49874 4.76932 8.28136C4.47544 9.03707 4.27477 9.90138 4.21714 11.1669C4.15855 12.4345 4.14514 12.8398 4.14514 16.0682C4.14514 19.2966 4.15855 19.7019 4.21714 20.9694C4.27477 22.2351 4.47544 23.0993 4.76932 23.855C5.0728 24.6367 5.47899 25.3006 6.14054 25.9609C6.80209 26.6212 7.46383 27.0278 8.24645 27.3321C9.00311 27.626 9.86647 27.8267 11.132 27.8843C12.4003 27.942 12.8048 27.9563 16.0333 27.9563C19.2617 27.9563 19.667 27.9429 20.9345 27.8843C22.2002 27.8267 23.0644 27.626 23.8201 27.3321C24.6018 27.0278 25.2644 26.6215 25.926 25.9609C26.5877 25.3003 26.9929 24.6367 27.2972 23.855C27.5911 23.0993 27.7927 22.235 27.8494 20.9694C27.907 19.7009 27.9205 19.2966 27.9205 16.0682C27.9205 12.8398 27.907 12.4345 27.8494 11.1669C27.7918 9.90129 27.5911 9.03659 27.2972 8.28136C26.9929 7.4997 26.5866 6.8371 25.926 6.17545C25.2654 5.51381 24.6018 5.10771 23.821 4.80423C23.0644 4.51035 22.2001 4.30873 20.9355 4.25205C19.6677 4.19413 19.2627 4.18005 16.0347 4.18005C12.8067 4.18005 12.4007 4.19346 11.1325 4.25205" fill="white"/>
</g>
<defs>
<radialGradient id="paint0_radial_42_79" cx="0" cy="0" r="1" gradientUnits="userSpaceOnUse" gradientTransform="translate(2.07101 31.299) scale(40.6281)">
<stop offset="0.09" stop-color="#FA8F21"/>
<stop offset="0.78" stop-color="#D82D7E"/>
</radialGradient>
<radialGradient id="paint1_radial_42_79" cx="0" cy="0" r="1" gradientUnits="userSpaceOnUse" gradientTransform="translate(22.1653 30.2715) scale(35.7531)">
<stop offset="0.64" stop-color="#8C3AAA" stop-opacity="0"/>
<stop offset="1" stop-color="#8C3AAA"/>
</radialGradient>
<clipPath id="clip0_42_79">
<rect width="32" height="32" fill="white"/>
</clipPath>
</defs>
</svg>
