<svg width="37" height="36" viewBox="0 0 37 36" fill="none" xmlns="http://www.w3.org/2000/svg">
<g clip-path="url(#clip0_42_144)">
<path d="M5 4.5H32V31.5H5V4.5Z" fill="#ECEFF1"/>
<path d="M18.5 20.8395L32 31.5V10.4535L18.5 20.8395Z" fill="#CFD8DC"/>
<path d="M33.125 4.5H32L18.5 15.1605L5 4.5H3.875C2.97989 4.5 2.12145 4.85558 1.48851 5.48851C0.855579 6.12145 0.5 6.97989 0.5 7.875L0.5 28.125C0.5 29.0201 0.855579 29.8786 1.48851 30.5115C2.12145 31.1444 2.97989 31.5 3.875 31.5H5V10.4535L18.5 20.8372L32 10.4513V31.5H33.125C34.0201 31.5 34.8786 31.1444 35.5115 30.5115C36.1444 29.8786 36.5 29.0201 36.5 28.125V7.875C36.5 6.97989 36.1444 6.12145 35.5115 5.48851C34.8786 4.85558 34.0201 4.5 33.125 4.5Z" fill="#F44336"/>
</g>
<defs>
<clipPath id="clip0_42_144">
<rect width="36" height="36" fill="white" transform="translate(0.5)"/>
</clipPath>
</defs>
</svg>
