<svg width="38" height="38" viewBox="0 0 38 38" fill="none" xmlns="http://www.w3.org/2000/svg">
<g clip-path="url(#clip0_42_152)">
<path d="M11.1144 34.8868C9.21134 34.8003 8.17755 34.4836 7.48994 34.2154C6.57883 33.8606 5.92927 33.4384 5.24546 32.7555C4.56166 32.0727 4.13844 31.4231 3.7856 30.512C3.5174 29.8244 3.2007 28.7906 3.11416 26.8875C3.01905 24.8304 3.00003 24.2132 3.00003 19.0014C3.00003 13.7897 3.02095 13.1734 3.11321 11.1144C3.19975 9.21131 3.51835 8.17942 3.78465 7.48991C4.13939 6.5788 4.56261 5.92924 5.24451 5.24448C5.92736 4.56163 6.57693 4.13746 7.48899 3.78462C8.1766 3.51642 9.21039 3.19972 11.1134 3.11318C13.1715 3.01902 13.7897 3 18.9996 3C24.2113 3 24.8276 3.02092 26.8866 3.11318C28.7897 3.19972 29.8216 3.51832 30.5111 3.78462C31.4222 4.13746 32.0717 4.56163 32.7556 5.24448C33.4394 5.92733 33.8607 6.57785 34.2154 7.48896C34.4836 8.17657 34.8003 9.21036 34.8869 11.1134C34.981 13.1724 35 13.7887 35 19.0005C35 24.2103 34.981 24.8285 34.8869 26.8875C34.8003 28.7906 34.4817 29.8244 34.2154 30.512C33.8607 31.4231 33.4384 32.0727 32.7556 32.7555C32.0727 33.4384 31.4222 33.8606 30.5111 34.2154C29.8235 34.4836 28.7897 34.8003 26.8866 34.8868C24.8295 34.981 24.2113 35 18.9996 35C13.7897 35 13.1715 34.9819 11.1144 34.8868Z" fill="url(#paint0_radial_42_152)"/>
<path d="M11.1144 34.8868C9.21134 34.8003 8.17755 34.4836 7.48994 34.2154C6.57883 33.8606 5.92927 33.4384 5.24546 32.7555C4.56166 32.0727 4.13844 31.4231 3.7856 30.512C3.5174 29.8244 3.2007 28.7906 3.11416 26.8875C3.01905 24.8304 3.00003 24.2132 3.00003 19.0014C3.00003 13.7897 3.02095 13.1734 3.11321 11.1144C3.19975 9.21131 3.51835 8.17942 3.78465 7.48991C4.13939 6.5788 4.56261 5.92924 5.24451 5.24448C5.92736 4.56163 6.57693 4.13746 7.48899 3.78462C8.1766 3.51642 9.21039 3.19972 11.1134 3.11318C13.1715 3.01902 13.7897 3 18.9996 3C24.2113 3 24.8276 3.02092 26.8866 3.11318C28.7897 3.19972 29.8216 3.51832 30.5111 3.78462C31.4222 4.13746 32.0717 4.56163 32.7556 5.24448C33.4394 5.92733 33.8607 6.57785 34.2154 7.48896C34.4836 8.17657 34.8003 9.21036 34.8869 11.1134C34.981 13.1724 35 13.7887 35 19.0005C35 24.2103 34.981 24.8285 34.8869 26.8875C34.8003 28.7906 34.4817 29.8244 34.2154 30.512C33.8607 31.4231 33.4384 32.0727 32.7556 32.7555C32.0727 33.4384 31.4222 33.8606 30.5111 34.2154C29.8235 34.4836 28.7897 34.8003 26.8866 34.8868C24.8295 34.981 24.2113 35 18.9996 35C13.7897 35 13.1715 34.9819 11.1144 34.8868Z" fill="url(#paint1_radial_42_152)"/>
<path d="M15.0712 19.0682C15.0712 16.8797 16.8449 15.1052 19.0333 15.1052C21.2218 15.1052 22.9963 16.8797 22.9963 19.0682C22.9963 21.2566 21.2218 23.0312 19.0333 23.0312C16.8449 23.0312 15.0712 21.2566 15.0712 19.0682ZM12.9289 19.0682C12.9289 22.4397 15.6618 25.1726 19.0333 25.1726C22.4048 25.1726 25.1377 22.4397 25.1377 19.0682C25.1377 15.6967 22.4048 12.9638 19.0333 12.9638C15.6618 12.9638 12.929 15.6965 12.929 19.0682M23.9529 12.7217C23.9528 13.0039 24.0364 13.2797 24.193 13.5144C24.3497 13.7491 24.5724 13.932 24.833 14.0401C25.0937 14.1481 25.3805 14.1765 25.6572 14.1216C25.934 14.0666 26.1882 13.9309 26.3878 13.7314C26.5874 13.532 26.7234 13.2779 26.7785 13.0012C26.8337 12.7245 26.8056 12.4376 26.6977 12.1769C26.5898 11.9162 26.4071 11.6933 26.1725 11.5365C25.938 11.3796 25.6622 11.2958 25.3801 11.2957H25.3795C25.0013 11.2959 24.6386 11.4462 24.3711 11.7136C24.1037 11.9809 23.9532 12.3435 23.9529 12.7217ZM14.2305 28.7449C13.0715 28.6922 12.4415 28.4991 12.0228 28.336C11.4678 28.1199 11.0718 27.8626 10.6554 27.4468C10.2391 27.031 9.98132 26.6353 9.76619 26.0803C9.60299 25.6618 9.40992 25.0317 9.35724 23.8726C9.2996 22.6195 9.28809 22.2431 9.28809 19.0684C9.28809 15.8937 9.30055 15.5183 9.35724 14.2641C9.41002 13.1051 9.60451 12.4762 9.76619 12.0565C9.98227 11.5014 10.2396 11.1054 10.6554 10.689C11.0712 10.2727 11.4669 10.0149 12.0228 9.79982C12.4413 9.63662 13.0715 9.44355 14.2305 9.39087C15.4836 9.33323 15.86 9.32172 19.0333 9.32172C22.2066 9.32172 22.5834 9.33399 23.8376 9.39106C24.9966 9.44384 25.6255 9.63833 26.0452 9.80001C26.6003 10.0151 26.9963 10.2734 27.4126 10.6892C27.829 11.105 28.0858 11.5016 28.3019 12.0567C28.4651 12.4751 28.6581 13.1053 28.7108 14.2643C28.7685 15.5185 28.78 15.8939 28.78 19.0686C28.78 22.2433 28.7685 22.6186 28.7108 23.8728C28.658 25.0318 28.464 25.6618 28.3019 26.0805C28.0858 26.6355 27.8284 27.0315 27.4126 27.4469C26.9968 27.8624 26.6003 28.1201 26.0452 28.3362C25.6268 28.4994 24.9966 28.6924 23.8376 28.7451C22.5844 28.8028 22.208 28.8143 19.0333 28.8143C15.8586 28.8143 15.4832 28.8028 14.2305 28.7451M14.1321 7.25205C12.8665 7.30968 12.0017 7.51035 11.2465 7.80423C10.4648 8.10771 9.80223 8.51485 9.14059 9.17545C8.47894 9.83605 8.07284 10.4987 7.76936 11.2814C7.47549 12.0371 7.27482 12.9014 7.21718 14.1669C7.1586 15.4345 7.14519 15.8398 7.14519 19.0682C7.14519 22.2966 7.1586 22.7019 7.21718 23.9694C7.27482 25.2351 7.47549 26.0993 7.76936 26.855C8.07284 27.6367 8.47904 28.3006 9.14059 28.9609C9.80214 29.6212 10.4639 30.0278 11.2465 30.3321C12.0032 30.626 12.8665 30.8267 14.1321 30.8843C15.4003 30.942 15.8049 30.9563 19.0333 30.9563C22.2618 30.9563 22.667 30.9429 23.9346 30.8843C25.2002 30.8267 26.0644 30.626 26.8201 30.3321C27.6018 30.0278 28.2644 29.6215 28.9261 28.9609C29.5877 28.3003 29.9929 27.6367 30.2973 26.855C30.5912 26.0993 30.7928 25.235 30.8495 23.9694C30.9071 22.7009 30.9205 22.2966 30.9205 19.0682C30.9205 15.8398 30.9071 15.4345 30.8495 14.1669C30.7918 12.9013 30.5912 12.0366 30.2973 11.2814C29.9929 10.4997 29.5867 9.8371 28.9261 9.17545C28.2655 8.51381 27.6018 8.10771 26.8211 7.80423C26.0644 7.51035 25.2001 7.30873 23.9355 7.25205C22.6678 7.19413 22.2627 7.18005 19.0347 7.18005C15.8068 7.18005 15.4008 7.19346 14.1326 7.25205" fill="white"/>
</g>
<defs>
<radialGradient id="paint0_radial_42_152" cx="0" cy="0" r="1" gradientUnits="userSpaceOnUse" gradientTransform="translate(5.07104 34.299) scale(40.6281)">
<stop offset="0.09" stop-color="#FA8F21"/>
<stop offset="0.78" stop-color="#D82D7E"/>
</radialGradient>
<radialGradient id="paint1_radial_42_152" cx="0" cy="0" r="1" gradientUnits="userSpaceOnUse" gradientTransform="translate(25.1653 33.2715) scale(35.7531)">
<stop offset="0.64" stop-color="#8C3AAA" stop-opacity="0"/>
<stop offset="1" stop-color="#8C3AAA"/>
</radialGradient>
<clipPath id="clip0_42_152">
<rect width="32" height="32" fill="white" transform="translate(3.00003 3)"/>
</clipPath>
</defs>
</svg>
