<svg width="41" height="40" viewBox="0 0 41 40" fill="none" xmlns="http://www.w3.org/2000/svg">
<path d="M20.5717 11.5417C18.3713 11.5439 16.2617 12.4188 14.7057 13.9745C13.1497 15.5303 12.2743 17.6397 12.2717 19.84C12.27 21.4067 12.71 22.9333 13.54 24.255L13.7367 24.5683L12.8983 27.63L16.04 26.8067L16.3417 26.9867C17.6209 27.7438 19.0802 28.1427 20.5667 28.1417H20.5683C22.768 28.1386 24.8766 27.2635 26.4321 25.7083C27.9877 24.1531 28.8631 22.0446 28.8667 19.845C28.8705 18.7547 28.658 17.6745 28.2414 16.6669C27.8249 15.6593 27.2126 14.7443 26.44 13.975C25.6714 13.2014 24.757 12.588 23.7497 12.1703C22.7423 11.7526 21.6622 11.539 20.5717 11.5417ZM25.4517 23.405C25.2433 23.9883 24.2467 24.5183 23.7683 24.59C23.244 24.6804 22.7057 24.6468 22.1967 24.4917C21.7138 24.3421 21.2392 24.1669 20.775 23.9667C18.2717 22.8867 16.6383 20.3683 16.5117 20.2C16.3883 20.0333 15.495 18.8467 15.495 17.62C15.495 16.3917 16.1383 15.7883 16.3667 15.5383C16.4505 15.4436 16.553 15.3672 16.6677 15.3139C16.7824 15.2605 16.9069 15.2314 17.0333 15.2283C17.2 15.2283 17.365 15.23 17.5117 15.2367C17.665 15.2433 17.87 15.1783 18.0717 15.665C18.28 16.165 18.78 17.3917 18.8417 17.5167C18.9033 17.64 18.945 17.7867 18.8633 17.9533C18.78 18.1217 18.74 18.2233 18.6133 18.37C18.49 18.5167 18.3517 18.695 18.24 18.8083C18.115 18.9317 17.985 19.0667 18.13 19.3167C18.2767 19.565 18.7767 20.3833 19.5167 21.045C20.47 21.895 21.275 22.1567 21.5233 22.2833C21.7733 22.4067 21.9183 22.3883 22.065 22.22C22.21 22.0517 22.6883 21.4917 22.855 21.2433C23.0217 20.9933 23.1867 21.035 23.4167 21.1167C23.645 21.2017 24.8717 21.8033 25.12 21.9283C25.3667 22.0517 25.535 22.115 25.5983 22.22C25.6583 22.3233 25.6583 22.8217 25.4517 23.405Z" fill="#16A34A"/>
<path d="M33.8333 5H7.16667C6.72464 5 6.30072 5.17559 5.98816 5.48816C5.67559 5.80072 5.5 6.22464 5.5 6.66667V33.3333C5.5 33.7754 5.67559 34.1993 5.98816 34.5118C6.30072 34.8244 6.72464 35 7.16667 35H33.8333C34.2754 35 34.6993 34.8244 35.0118 34.5118C35.3244 34.1993 35.5 33.7754 35.5 33.3333V6.66667C35.5 6.22464 35.3244 5.80072 35.0118 5.48816C34.6993 5.17559 34.2754 5 33.8333 5ZM20.5667 29.8267H20.5633C18.8968 29.8268 17.2567 29.4091 15.7933 28.6117L10.5 30L11.9167 24.8267C11.0416 23.3087 10.5814 21.5872 10.5823 19.8351C10.5832 18.083 11.045 16.362 11.9216 14.8449C12.7981 13.3278 14.0584 12.068 15.5758 11.1921C17.0933 10.3163 18.8146 9.85511 20.5667 9.855C21.8792 9.85137 23.1794 10.1083 24.3919 10.611C25.6044 11.1137 26.705 11.8521 27.63 12.7833C28.5593 13.7089 29.2957 14.8097 29.7966 16.0218C30.2975 17.234 30.5531 18.5334 30.5483 19.845C30.5444 22.4911 29.4915 25.0277 27.6204 26.8987C25.7493 28.7698 23.2127 29.8227 20.5667 29.8267Z" fill="#16A34A"/>
</svg>
